<svg xmlns="http://www.w3.org/2000/svg" version="1.1" xmlns:xlink="http://www.w3.org/1999/xlink" xmlns:svgjs="http://svgjs.dev/svgjs" width="1500" height="1500" viewBox="0 0 1500 1500"><rect width="1500" height="1500" fill="#001f3f"></rect><g transform="matrix(0.6666666666666666,0,0,0.6666666666666666,250,250.0000000000001)"><svg viewBox="0 0 280 280" data-background-color="#001f3f" preserveAspectRatio="xMidYMid meet" height="1500" width="1500" xmlns="http://www.w3.org/2000/svg" xmlns:xlink="http://www.w3.org/1999/xlink"><g id="tight-bounds" transform="matrix(1,0,0,1,0,-2.842170943040401e-14)"><svg viewBox="0 0 280 280" height="280" width="280"><g><svg viewBox="0 0 280 280" height="280" width="280"><g><svg viewBox="0 0 280 280" height="280" width="280"><g id="textblocktransform"><svg viewBox="0 0 280 280" height="280" width="280" id="textblock"><g><svg viewBox="0 0 280 280" height="280" width="280"><g transform="matrix(1,0,0,1,90.72746620757526,74.00336708925556)"><svg viewBox="0 0 98.54506758484948 131.99326582148888" height="131.99326582148888" width="98.54506758484948"><g id="icon-0"><svg xmlns="http://www.w3.org/2000/svg" xmlns:xlink="http://www.w3.org/1999/xlink" version="1.1" x="0" y="0" viewBox="17.521497856041442 7.836906035595932 62.9571560122402 84.32609396440407" enable-background="new 0 0 100 100" xml:space="preserve" height="131.99326582148888" width="98.54506758484948" class="icon-xg-0" data-fill-palette-color="accent" id="xg-0"></svg></g></svg></g><g id="text-0"><path d="M81.791 18.245l-1.258 0.704c-0.696-1.077-1.557-1.984-2.583-2.721-1.029-0.743-2.162-1.18-3.399-1.31-1.24-0.136-2.546 0.18-3.917 0.947v0c-1.448 0.81-2.327 1.838-2.639 3.083-0.312 1.245-0.162 2.415 0.451 3.508v0c0.549 0.981 1.291 1.648 2.226 2.002 0.926 0.351 1.978 0.526 3.158 0.525 1.176-0.006 2.397-0.057 3.662-0.153v0c1.102-0.097 2.224-0.166 3.365-0.207 1.141-0.041 2.236 0.029 3.284 0.21 1.051 0.172 2.017 0.539 2.898 1.102 0.885 0.568 1.639 1.41 2.265 2.527v0c0.718 1.282 1.034 2.603 0.949 3.962-0.076 1.362-0.561 2.665-1.454 3.911-0.896 1.255-2.216 2.37-3.96 3.345v0c-1.052 0.589-2.22 1.045-3.506 1.369-1.285 0.324-2.523 0.435-3.713 0.333v0l1.012 1.412-1.817 1.017-4.372-7.331 1.365-0.764c1.26 1.988 2.839 3.145 4.737 3.472 1.898 0.327 3.766-0.024 5.604-1.053v0c0.91-0.509 1.655-1.147 2.234-1.915 0.586-0.77 0.921-1.606 1.006-2.507 0.088-0.911-0.128-1.83-0.647-2.757v0c-0.589-1.052-1.356-1.771-2.302-2.158-0.955-0.389-2.018-0.589-3.189-0.601-1.174-0.018-2.391 0.019-3.651 0.112v0c-1.108 0.1-2.217 0.17-3.328 0.21-1.111 0.04-2.179-0.025-3.206-0.196-1.03-0.176-1.982-0.539-2.857-1.09-0.875-0.55-1.626-1.387-2.254-2.509v0c-0.337-0.603-0.598-1.311-0.781-2.124-0.181-0.822-0.19-1.698-0.028-2.627 0.165-0.938 0.595-1.87 1.289-2.793 0.694-0.924 1.749-1.783 3.167-2.577v0c0.886-0.496 1.951-0.929 3.195-1.3 1.246-0.38 2.541-0.487 3.883-0.322v0l-0.972-1.424 1.782-0.997z" fill="#979797" data-fill-palette-color="primary"></path><path d="M175.197 31.84l-1.148-0.345c-0.36-2.894-0.732-5.785-1.116-8.672-0.388-2.896-0.738-5.812-1.05-8.748v0c-0.117-0.926-0.223-1.856-0.317-2.79-0.092-0.94-0.17-1.879-0.235-2.818-0.071-0.941-0.145-1.882-0.222-2.824v0c-0.084 0.279-0.175 0.559-0.274 0.84-0.097 0.275-0.188 0.555-0.274 0.841v0c-0.303 0.913-0.668 2.009-1.094 3.287-0.427 1.279-0.888 2.646-1.383 4.103-0.486 1.452-0.963 2.91-1.431 4.375-0.469 1.464-0.912 2.844-1.33 4.14v0c-0.196 0.556-0.385 1.115-0.567 1.675-0.181 0.554-0.37 1.066-0.568 1.536v0c0.494 0.12 0.982 0.239 1.463 0.355 0.481 0.116 0.969 0.235 1.463 0.355v0l-0.509 1.693-7.325-2.202 0.38-1.265c0.799 0.212 1.431 0.215 1.897 0.008 0.467-0.213 0.833-0.57 1.096-1.07 0.266-0.507 0.504-1.065 0.715-1.673v0l5.988-17.271c0.18-0.505 0.35-1.012 0.511-1.522 0.167-0.508 0.337-1.002 0.508-1.48v0c-0.468-0.112-0.934-0.231-1.398-0.357-0.464-0.125-0.931-0.244-1.399-0.357v0l0.497-1.654 5.875 1.766 2.015 17.216c0.101 0.865 0.197 1.732 0.29 2.601 0.088 0.861 0.188 1.725 0.302 2.594 0.112 0.875 0.217 1.759 0.316 2.652v0l0.078 0.023c0.487-0.61 1.066-1.334 1.735-2.173 0.671-0.845 1.241-1.575 1.709-2.19v0c1.968-2.477 3.986-4.943 6.053-7.398 2.063-2.463 4.135-5.029 6.218-7.698v0l5.68 1.708-0.383 1.275c-0.634-0.219-1.196-0.257-1.684-0.114-0.488 0.143-0.913 0.496-1.273 1.06-0.367 0.561-0.681 1.372-0.943 2.431v0l-4.258 17.759c-0.079 0.45-0.18 0.879-0.302 1.288-0.123 0.409-0.234 0.778-0.334 1.109v0c0.468 0.112 0.941 0.233 1.419 0.363 0.477 0.129 0.95 0.25 1.418 0.363v0l-0.509 1.692-8.589-2.582 0.38-1.265c0.799 0.212 1.443 0.197 1.933-0.044 0.492-0.248 0.883-0.689 1.173-1.324 0.292-0.641 0.557-1.452 0.795-2.434v0l3.039-12.896c0.097-0.416 0.194-0.833 0.291-1.249 0.097-0.416 0.194-0.833 0.291-1.249 0.103-0.414 0.204-0.83 0.3-1.246v0c-0.13 0.152-0.272 0.318-0.425 0.498-0.151 0.174-0.301 0.366-0.449 0.576v0z" fill="#979797" data-fill-palette-color="primary"></path><path d="M1.055 143.672c0-6.052 4.906-10.958 10.958-10.958 6.052 0 10.958 4.906 10.958 10.958 0 6.052-4.906 10.958-10.958 10.958-6.052 0-10.958-4.906-10.958-10.958z" fill="#979797" data-fill-palette-color="primary"></path><path d="M257.029 143.672c0-6.052 4.906-10.958 10.958-10.958 6.052 0 10.958 4.906 10.958 10.958 0 6.052-4.906 10.958-10.958 10.958-6.052 0-10.958-4.906-10.958-10.958z" fill="#979797" data-fill-palette-color="primary"></path></g><g id="text-1"><path d="M91.231 252.426l-1.267-0.71c0.561-1.168 0.888-2.39 0.98-3.665 0.099-1.272-0.121-2.473-0.659-3.605-0.535-1.138-1.497-2.095-2.886-2.872v0c-1.46-0.817-2.806-1.031-4.04-0.643-1.237 0.394-2.165 1.143-2.783 2.248v0c-0.552 0.987-0.735 1.971-0.547 2.953 0.194 0.985 0.6 1.985 1.22 2.999 0.623 1.008 1.307 2.032 2.053 3.07v0c0.667 0.901 1.32 1.829 1.957 2.784 0.634 0.96 1.154 1.938 1.559 2.933 0.396 0.998 0.586 2.024 0.571 3.078-0.022 1.051-0.349 2.141-0.981 3.269v0c-0.724 1.294-1.691 2.266-2.901 2.916-1.216 0.647-2.592 0.916-4.13 0.808-1.547-0.106-3.204-0.653-4.971-1.642v0c-1.052-0.589-2.056-1.353-3.013-2.291-0.957-0.939-1.708-1.946-2.255-3.021v0l-0.671 1.615-1.826-1.022 3.989-7.626 1.374 0.769c-1.039 2.134-1.203 4.103-0.489 5.907 0.719 1.807 2.006 3.23 3.861 4.268v0c0.922 0.516 1.866 0.819 2.832 0.91 0.966 0.091 1.863-0.063 2.691-0.461 0.822-0.401 1.498-1.075 2.027-2.02v0c0.592-1.058 0.804-2.095 0.636-3.112-0.174-1.021-0.561-2.041-1.162-3.061-0.605-1.014-1.28-2.039-2.026-3.077v0c-0.671-0.895-1.315-1.811-1.932-2.746-0.623-0.939-1.132-1.895-1.526-2.868-0.394-0.973-0.585-1.984-0.572-3.033 0.015-1.039 0.339-2.123 0.97-3.251v0c0.341-0.609 0.813-1.21 1.417-1.803 0.606-0.584 1.356-1.049 2.248-1.396 0.89-0.356 1.913-0.478 3.068-0.366 1.159 0.106 2.457 0.56 3.893 1.364v0c0.892 0.499 1.827 1.186 2.805 2.059 0.978 0.873 1.752 1.931 2.321 3.173v0l0.707-1.595 1.799 1.007z" fill="#eeddc1" data-fill-palette-color="secondary"></path><path d="M181.16 275.534l-1.167 0.35c-1.91-2.241-3.83-4.471-5.762-6.691-1.93-2.214-3.844-4.471-5.744-6.771v0c-0.604-0.717-1.207-1.444-1.811-2.182-0.601-0.732-1.192-1.474-1.771-2.226-0.575-0.761-1.158-1.515-1.75-2.264v0c0.086 0.285 0.165 0.573 0.237 0.862 0.071 0.283 0.149 0.567 0.235 0.853v0c0.252 0.935 0.555 2.061 0.907 3.375 0.352 1.315 0.725 2.723 1.119 4.225 0.394 1.501 0.8 2.995 1.218 4.481 0.42 1.493 0.814 2.902 1.183 4.226v0c0.143 0.572 0.294 1.145 0.452 1.72 0.156 0.568 0.283 1.107 0.379 1.615v0c0.485-0.174 0.964-0.346 1.436-0.516 0.466-0.168 0.941-0.339 1.426-0.512v0l0.511 1.702-7.394 2.219-0.382-1.274c0.79-0.265 1.324-0.617 1.603-1.054 0.279-0.437 0.389-0.941 0.332-1.51-0.066-0.574-0.179-1.173-0.338-1.797v0l-4.557-17.87c-0.128-0.52-0.263-1.042-0.405-1.565-0.143-0.523-0.274-1.031-0.394-1.525v0c-0.459 0.166-0.917 0.325-1.374 0.476-0.463 0.153-0.921 0.312-1.374 0.476v0l-0.499-1.664 5.915-1.775 11.264 13.365c0.569 0.671 1.131 1.343 1.688 2.018 0.551 0.683 1.118 1.358 1.699 2.024 0.582 0.667 1.159 1.353 1.731 2.058v0l0.078-0.024c0.075-0.786 0.162-1.721 0.262-2.804 0.099-1.083 0.171-2.01 0.216-2.779v0c0.283-3.181 0.61-6.38 0.98-9.595 0.369-3.222 0.691-6.532 0.966-9.93v0l5.73-1.719 0.383 1.274c-0.656 0.169-1.148 0.451-1.475 0.846-0.333 0.397-0.498 0.931-0.495 1.601 0.003 0.671 0.19 1.53 0.561 2.578v0l6.293 17.296c0.184 0.425 0.339 0.846 0.464 1.261 0.123 0.409 0.235 0.782 0.335 1.119v0c0.453-0.164 0.917-0.325 1.393-0.482 0.47-0.155 0.934-0.316 1.394-0.481v0l0.51 1.702-8.668 2.601-0.382-1.274c0.79-0.265 1.325-0.638 1.605-1.118 0.28-0.48 0.365-1.068 0.256-1.763-0.11-0.695-0.338-1.528-0.687-2.498v0l-4.608-12.531c-0.15-0.407-0.3-0.811-0.449-1.212-0.15-0.407-0.301-0.815-0.451-1.222-0.149-0.401-0.298-0.805-0.449-1.213v0c-0.023 0.205-0.049 0.425-0.078 0.66-0.029 0.235-0.044 0.476-0.047 0.725v0z" fill="#eeddc1" data-fill-palette-color="secondary"></path></g></svg></g></svg></g></svg></g></svg></g><defs></defs><mask id="22ede158-0874-4674-b89c-e58fd1834101"><g id="SvgjsG2022"><svg viewBox="0 0 280 280" height="280" width="280"><g><svg viewBox="0 0 280 280" height="280" width="280"><g><svg viewBox="0 0 280 280" height="280" width="280"><g id="SvgjsG2021"><svg viewBox="0 0 280 280" height="280" width="280" id="SvgjsSvg2020"><g><svg viewBox="0 0 280 280" height="280" width="280"><g transform="matrix(1,0,0,1,90.72746620757526,74.00336708925556)"><svg viewBox="0 0 98.54506758484948 131.99326582148888" height="131.99326582148888" width="98.54506758484948"><g id="SvgjsG2019"><svg xmlns="http://www.w3.org/2000/svg" xmlns:xlink="http://www.w3.org/1999/xlink" version="1.1" x="0" y="0" viewBox="17.521497856041442 7.836906035595932 62.9571560122402 84.32609396440407" enable-background="new 0 0 100 100" xml:space="preserve" height="131.99326582148888" width="98.54506758484948" class="icon-xg-0" data-fill-palette-color="accent" id="SvgjsSvg2018"><g fill="white"><path d="M56.731 62.561c-0.868-1.771-1.599-2.572-2.521-2.764-0.857-0.178-1.987-0.004-3.552 0.238-5.357 0.826-10.757 1.205-12.781-3.926-1.005-2.549-1.099-6.455 9.643-10.939 1.08-0.45 1.443-0.602 1.783-0.994 1.444-1.667-0.213-4.597-1.15-5.981 0.181-0.229 0.441-0.521 0.651-0.756 1.46-1.629 4.176-4.662 1.742-8.862-0.881-1.521-3.223-1.862-7.103-2.429-3.766-0.55-9.456-1.381-10.773-3.556C27.95 14.806 20.679 8.518 20.371 8.253c-0.723-0.62-1.812-0.538-2.433 0.185-0.621 0.724-0.538 1.812 0.185 2.434 0.071 0.061 7.158 6.188 11.596 13.51 2.161 3.564 8.297 4.461 13.227 5.181 1.712 0.25 4.022 0.587 4.718 0.929 0.911 1.725 0.215 2.81-1.43 4.646-1.006 1.124-2.526 2.821-1.192 4.632 0.636 0.863 1.032 1.655 1.229 2.185-0.026 0.011-0.053 0.022-0.079 0.033-1.88 0.784-5.378 2.245-8.159 4.585-4.732 3.981-4.441 8.073-3.364 10.803 3.205 8.125 12.196 6.736 16.517 6.07 0.676-0.104 1.475-0.227 1.961-0.266 0.826 1.279 2.594 5.684 2.494 8.969-0.033 1.1-0.283 1.916-0.705 2.299-2.645 2.404-6.116 3.854-9.473 5.256-5.348 2.234-10.878 4.545-10.812 10.752 0.011 0.947 0.781 1.707 1.726 1.707 0.006 0 0.013 0 0.019 0 0.952-0.01 1.717-0.791 1.707-1.744-0.04-3.701 3.114-5.201 8.691-7.531 3.458-1.443 7.377-3.082 10.463-5.885 1.405-1.277 2.733-4.066 1.086-10.1C57.92 65.363 57.349 63.82 56.731 62.561z" fill="white"></path><path d="M55.425 44.233c0.356 0 0.714-0.117 1.013-0.358l14.591-11.771c0.694-0.56 0.804-1.577 0.243-2.271-0.56-0.693-1.577-0.803-2.271-0.242L54.41 41.361c-0.694 0.56-0.804 1.577-0.243 2.271C54.485 44.027 54.953 44.233 55.425 44.233z" fill="white"></path><path d="M57.504 47.489c-0.873 0.181-1.435 1.036-1.254 1.909 0.158 0.763 0.83 1.288 1.58 1.288 0.108 0 0.219-0.012 0.329-0.033l13.952-2.894c0.873-0.181 1.435-1.036 1.253-1.909-0.181-0.874-1.037-1.436-1.909-1.254L57.504 47.489z" fill="white"></path><path d="M79.194 59.055l-20.262-4.248c-0.874-0.182-1.729 0.377-1.912 1.25-0.184 0.873 0.376 1.729 1.249 1.912l20.262 4.248c0.112 0.023 0.224 0.035 0.333 0.035 0.748 0 1.42-0.523 1.58-1.285C80.627 60.094 80.067 59.238 79.194 59.055z" fill="white"></path></g></svg></g></svg></g><g id="SvgjsG2017"><path d="M81.791 18.245l-1.258 0.704c-0.696-1.077-1.557-1.984-2.583-2.721-1.029-0.743-2.162-1.18-3.399-1.31-1.24-0.136-2.546 0.18-3.917 0.947v0c-1.448 0.81-2.327 1.838-2.639 3.083-0.312 1.245-0.162 2.415 0.451 3.508v0c0.549 0.981 1.291 1.648 2.226 2.002 0.926 0.351 1.978 0.526 3.158 0.525 1.176-0.006 2.397-0.057 3.662-0.153v0c1.102-0.097 2.224-0.166 3.365-0.207 1.141-0.041 2.236 0.029 3.284 0.21 1.051 0.172 2.017 0.539 2.898 1.102 0.885 0.568 1.639 1.41 2.265 2.527v0c0.718 1.282 1.034 2.603 0.949 3.962-0.076 1.362-0.561 2.665-1.454 3.911-0.896 1.255-2.216 2.37-3.96 3.345v0c-1.052 0.589-2.22 1.045-3.506 1.369-1.285 0.324-2.523 0.435-3.713 0.333v0l1.012 1.412-1.817 1.017-4.372-7.331 1.365-0.764c1.26 1.988 2.839 3.145 4.737 3.472 1.898 0.327 3.766-0.024 5.604-1.053v0c0.91-0.509 1.655-1.147 2.234-1.915 0.586-0.77 0.921-1.606 1.006-2.507 0.088-0.911-0.128-1.83-0.647-2.757v0c-0.589-1.052-1.356-1.771-2.302-2.158-0.955-0.389-2.018-0.589-3.189-0.601-1.174-0.018-2.391 0.019-3.651 0.112v0c-1.108 0.1-2.217 0.17-3.328 0.21-1.111 0.04-2.179-0.025-3.206-0.196-1.03-0.176-1.982-0.539-2.857-1.09-0.875-0.55-1.626-1.387-2.254-2.509v0c-0.337-0.603-0.598-1.311-0.781-2.124-0.181-0.822-0.19-1.698-0.028-2.627 0.165-0.938 0.595-1.87 1.289-2.793 0.694-0.924 1.749-1.783 3.167-2.577v0c0.886-0.496 1.951-0.929 3.195-1.3 1.246-0.38 2.541-0.487 3.883-0.322v0l-0.972-1.424 1.782-0.997z" fill="black"></path><path d="M175.197 31.84l-1.148-0.345c-0.36-2.894-0.732-5.785-1.116-8.672-0.388-2.896-0.738-5.812-1.05-8.748v0c-0.117-0.926-0.223-1.856-0.317-2.79-0.092-0.94-0.17-1.879-0.235-2.818-0.071-0.941-0.145-1.882-0.222-2.824v0c-0.084 0.279-0.175 0.559-0.274 0.84-0.097 0.275-0.188 0.555-0.274 0.841v0c-0.303 0.913-0.668 2.009-1.094 3.287-0.427 1.279-0.888 2.646-1.383 4.103-0.486 1.452-0.963 2.91-1.431 4.375-0.469 1.464-0.912 2.844-1.33 4.14v0c-0.196 0.556-0.385 1.115-0.567 1.675-0.181 0.554-0.37 1.066-0.568 1.536v0c0.494 0.12 0.982 0.239 1.463 0.355 0.481 0.116 0.969 0.235 1.463 0.355v0l-0.509 1.693-7.325-2.202 0.38-1.265c0.799 0.212 1.431 0.215 1.897 0.008 0.467-0.213 0.833-0.57 1.096-1.07 0.266-0.507 0.504-1.065 0.715-1.673v0l5.988-17.271c0.18-0.505 0.35-1.012 0.511-1.522 0.167-0.508 0.337-1.002 0.508-1.48v0c-0.468-0.112-0.934-0.231-1.398-0.357-0.464-0.125-0.931-0.244-1.399-0.357v0l0.497-1.654 5.875 1.766 2.015 17.216c0.101 0.865 0.197 1.732 0.29 2.601 0.088 0.861 0.188 1.725 0.302 2.594 0.112 0.875 0.217 1.759 0.316 2.652v0l0.078 0.023c0.487-0.61 1.066-1.334 1.735-2.173 0.671-0.845 1.241-1.575 1.709-2.19v0c1.968-2.477 3.986-4.943 6.053-7.398 2.063-2.463 4.135-5.029 6.218-7.698v0l5.68 1.708-0.383 1.275c-0.634-0.219-1.196-0.257-1.684-0.114-0.488 0.143-0.913 0.496-1.273 1.06-0.367 0.561-0.681 1.372-0.943 2.431v0l-4.258 17.759c-0.079 0.45-0.18 0.879-0.302 1.288-0.123 0.409-0.234 0.778-0.334 1.109v0c0.468 0.112 0.941 0.233 1.419 0.363 0.477 0.129 0.95 0.25 1.418 0.363v0l-0.509 1.692-8.589-2.582 0.38-1.265c0.799 0.212 1.443 0.197 1.933-0.044 0.492-0.248 0.883-0.689 1.173-1.324 0.292-0.641 0.557-1.452 0.795-2.434v0l3.039-12.896c0.097-0.416 0.194-0.833 0.291-1.249 0.097-0.416 0.194-0.833 0.291-1.249 0.103-0.414 0.204-0.83 0.3-1.246v0c-0.13 0.152-0.272 0.318-0.425 0.498-0.151 0.174-0.301 0.366-0.449 0.576v0z" fill="black"></path><path d="M1.055 143.672c0-6.052 4.906-10.958 10.958-10.958 6.052 0 10.958 4.906 10.958 10.958 0 6.052-4.906 10.958-10.958 10.958-6.052 0-10.958-4.906-10.958-10.958z" fill="black"></path><path d="M257.029 143.672c0-6.052 4.906-10.958 10.958-10.958 6.052 0 10.958 4.906 10.958 10.958 0 6.052-4.906 10.958-10.958 10.958-6.052 0-10.958-4.906-10.958-10.958z" fill="black"></path></g><g id="SvgjsG2016"><path d="M91.231 252.426l-1.267-0.71c0.561-1.168 0.888-2.39 0.98-3.665 0.099-1.272-0.121-2.473-0.659-3.605-0.535-1.138-1.497-2.095-2.886-2.872v0c-1.46-0.817-2.806-1.031-4.04-0.643-1.237 0.394-2.165 1.143-2.783 2.248v0c-0.552 0.987-0.735 1.971-0.547 2.953 0.194 0.985 0.6 1.985 1.22 2.999 0.623 1.008 1.307 2.032 2.053 3.07v0c0.667 0.901 1.32 1.829 1.957 2.784 0.634 0.96 1.154 1.938 1.559 2.933 0.396 0.998 0.586 2.024 0.571 3.078-0.022 1.051-0.349 2.141-0.981 3.269v0c-0.724 1.294-1.691 2.266-2.901 2.916-1.216 0.647-2.592 0.916-4.13 0.808-1.547-0.106-3.204-0.653-4.971-1.642v0c-1.052-0.589-2.056-1.353-3.013-2.291-0.957-0.939-1.708-1.946-2.255-3.021v0l-0.671 1.615-1.826-1.022 3.989-7.626 1.374 0.769c-1.039 2.134-1.203 4.103-0.489 5.907 0.719 1.807 2.006 3.23 3.861 4.268v0c0.922 0.516 1.866 0.819 2.832 0.91 0.966 0.091 1.863-0.063 2.691-0.461 0.822-0.401 1.498-1.075 2.027-2.02v0c0.592-1.058 0.804-2.095 0.636-3.112-0.174-1.021-0.561-2.041-1.162-3.061-0.605-1.014-1.28-2.039-2.026-3.077v0c-0.671-0.895-1.315-1.811-1.932-2.746-0.623-0.939-1.132-1.895-1.526-2.868-0.394-0.973-0.585-1.984-0.572-3.033 0.015-1.039 0.339-2.123 0.97-3.251v0c0.341-0.609 0.813-1.21 1.417-1.803 0.606-0.584 1.356-1.049 2.248-1.396 0.89-0.356 1.913-0.478 3.068-0.366 1.159 0.106 2.457 0.56 3.893 1.364v0c0.892 0.499 1.827 1.186 2.805 2.059 0.978 0.873 1.752 1.931 2.321 3.173v0l0.707-1.595 1.799 1.007z" fill="black"></path><path d="M181.16 275.534l-1.167 0.35c-1.91-2.241-3.83-4.471-5.762-6.691-1.93-2.214-3.844-4.471-5.744-6.771v0c-0.604-0.717-1.207-1.444-1.811-2.182-0.601-0.732-1.192-1.474-1.771-2.226-0.575-0.761-1.158-1.515-1.75-2.264v0c0.086 0.285 0.165 0.573 0.237 0.862 0.071 0.283 0.149 0.567 0.235 0.853v0c0.252 0.935 0.555 2.061 0.907 3.375 0.352 1.315 0.725 2.723 1.119 4.225 0.394 1.501 0.8 2.995 1.218 4.481 0.42 1.493 0.814 2.902 1.183 4.226v0c0.143 0.572 0.294 1.145 0.452 1.72 0.156 0.568 0.283 1.107 0.379 1.615v0c0.485-0.174 0.964-0.346 1.436-0.516 0.466-0.168 0.941-0.339 1.426-0.512v0l0.511 1.702-7.394 2.219-0.382-1.274c0.79-0.265 1.324-0.617 1.603-1.054 0.279-0.437 0.389-0.941 0.332-1.51-0.066-0.574-0.179-1.173-0.338-1.797v0l-4.557-17.87c-0.128-0.52-0.263-1.042-0.405-1.565-0.143-0.523-0.274-1.031-0.394-1.525v0c-0.459 0.166-0.917 0.325-1.374 0.476-0.463 0.153-0.921 0.312-1.374 0.476v0l-0.499-1.664 5.915-1.775 11.264 13.365c0.569 0.671 1.131 1.343 1.688 2.018 0.551 0.683 1.118 1.358 1.699 2.024 0.582 0.667 1.159 1.353 1.731 2.058v0l0.078-0.024c0.075-0.786 0.162-1.721 0.262-2.804 0.099-1.083 0.171-2.01 0.216-2.779v0c0.283-3.181 0.61-6.38 0.98-9.595 0.369-3.222 0.691-6.532 0.966-9.93v0l5.73-1.719 0.383 1.274c-0.656 0.169-1.148 0.451-1.475 0.846-0.333 0.397-0.498 0.931-0.495 1.601 0.003 0.671 0.19 1.53 0.561 2.578v0l6.293 17.296c0.184 0.425 0.339 0.846 0.464 1.261 0.123 0.409 0.235 0.782 0.335 1.119v0c0.453-0.164 0.917-0.325 1.393-0.482 0.47-0.155 0.934-0.316 1.394-0.481v0l0.51 1.702-8.668 2.601-0.382-1.274c0.79-0.265 1.325-0.638 1.605-1.118 0.28-0.48 0.365-1.068 0.256-1.763-0.11-0.695-0.338-1.528-0.687-2.498v0l-4.608-12.531c-0.15-0.407-0.3-0.811-0.449-1.212-0.15-0.407-0.301-0.815-0.451-1.222-0.149-0.401-0.298-0.805-0.449-1.213v0c-0.023 0.205-0.049 0.425-0.078 0.66-0.029 0.235-0.044 0.476-0.047 0.725v0z" fill="black"></path></g></svg></g></svg></g></svg></g></svg></g><defs><mask></mask></defs></svg><rect width="280" height="280" fill="black" stroke="none" visibility="hidden"></rect></g></mask><linearGradient x1="0.054" x2="0.941" y1="0.5" y2="0.5" id="b6202a3c-6545-4832-af4d-854f024699e1"><stop stop-color="#9c7945" offset="0"></stop><stop stop-color="#faf3aa" offset="0.498"></stop><stop stop-color="#9c7945" offset="1"></stop></linearGradient><rect width="280" height="280.00000000000006" fill="url(#b6202a3c-6545-4832-af4d-854f024699e1)" mask="url(#22ede158-0874-4674-b89c-e58fd1834101)" data-fill-palette-color="accent"></rect></svg><rect width="280" height="280" fill="none" stroke="none" visibility="hidden"></rect></g></svg></g></svg>